<?xml version="1.0" standalone="no"?><!DOCTYPE svg PUBLIC "-//W3C//DTD SVG 1.1//EN" "http://www.w3.org/Graphics/SVG/1.1/DTD/svg11.dtd"><svg t="1584597849676" class="icon" viewBox="0 0 1024 1024" version="1.1" xmlns="http://www.w3.org/2000/svg" p-id="15888" xmlns:xlink="http://www.w3.org/1999/xlink" width="200" height="200"><defs><style type="text/css"></style></defs><path d="M928 222v622.8a83.19 83.19 0 0 1-83.2 83.2H222A126 126 0 0 1 96 802V222A125.93 125.93 0 0 1 222 96h580a126 126 0 0 1 126 126z" fill="#1890FF" p-id="15889"></path><path d="M731.1 928H222A126 126 0 0 1 96 802V370q12.42-0.5 25-0.5 15.06 0 29.93 0.72C445.31 384.42 685.22 606.47 727 892.83q2.55 17.43 4.1 35.17z" fill="#FFFFFF" opacity=".2" p-id="15890"></path><path d="M928 222v622.8a82.87 82.87 0 0 1-6.69 32.74A635.16 635.16 0 0 1 774.7 894.6q-24.06 0-47.69-1.77c-291-21.67-527.21-240-576.13-522.58a638.8 638.8 0 0 1 8.24-257.47A125.48 125.48 0 0 1 222 96h580a126 126 0 0 1 126 126z" fill="#FFFFFF" opacity=".14" p-id="15891"></path><path d="M615.29 601h-15.61v54.63h7.81v-23.39h7.8a15.61 15.61 0 0 0 0-31.22z m0 23.41h-7.8v-15.6h7.8a7.8 7.8 0 1 1 0 15.6z m78 3.91h-0.2a93.53 93.53 0 0 0-186.9 0H506A66.34 66.34 0 0 0 506 761h187.3a66.33 66.33 0 0 0 0-132.66z m-132.67 78h-78a7.81 7.81 0 0 1 0-15.61h78a7.81 7.81 0 1 1 0 15.61z m46.83 31.21a7.81 7.81 0 1 1-15.61 0v-7.8a7.81 7.81 0 0 1 15.61 0z m11.7-27.31a7.8 7.8 0 0 1-7.8 7.8H588a7.81 7.81 0 0 1-7.81-7.8v-23.35a7.81 7.81 0 0 1 7.81-7.81h23.41a7.81 7.81 0 0 1 7.8 7.81v23.41z m-46.82-42.92a11.7 11.7 0 0 1-11.71-11.7V601a11.7 11.7 0 0 1 11.7-11.7H627a11.7 11.7 0 0 1 11.7 11.7v54.63a11.71 11.71 0 0 1-11.7 11.73h-54.63z m144.37 39h-78a7.81 7.81 0 0 1 0-15.61h78a7.81 7.81 0 1 1 0 15.61z m-136.53-50.65H588V601h-7.81v54.63z" fill="#FFFFFF" p-id="15892"></path><path d="M662.15 308.91a52.15 52.15 0 0 0-52-52h-304a52.15 52.15 0 0 0-52 52v363a52.15 52.15 0 0 0 52 52h114.52a97 97 0 0 1-3-23.91c0-43.7 29-80.43 68.35-91a126 126 0 0 1 122.65-97c19.25 0 37.48 9.32 53.8 17z m-186 273.64a18.41 18.41 0 0 1-18.35 18.36H338.2a18.41 18.41 0 0 1-18.35-18.36v-3.28a18.41 18.41 0 0 1 18.35-18.36h119.6a18.41 18.41 0 0 1 18.35 18.36z m55-105a18.41 18.41 0 0 1-18.35 18.36H337.2a18.41 18.41 0 0 1-18.35-18.36v-3.28a18.41 18.41 0 0 1 18.35-18.36h175.6a18.41 18.41 0 0 1 18.35 18.36z m36-103.64a20.06 20.06 0 0 1-20 20h-212a20.06 20.06 0 0 1-20-20 20.06 20.06 0 0 1 20-20h212a20.06 20.06 0 0 1 20 20z" fill="#FFFFFF" p-id="15893"></path></svg>