<!-- Generated by IcoMoon.io -->
<svg version="1.1" xmlns="http://www.w3.org/2000/svg" width="32" height="32" viewBox="0 0 32 32">
<title>cjet</title>
<path fill="#79baff" d="M6.949 11.475l4.525-4.525 4.525 4.525-4.525 4.525-4.525-4.525z"></path>
<path fill="#79baff" d="M16 20.525l4.525-4.525 4.525 4.525-4.525 4.525-4.525-4.525z"></path>
<path fill="#e49813" d="M20.525 25.051l4.525-4.525 4.525 4.525-4.525 4.525-4.525-4.525z"></path>
<path fill="#e49813" d="M20.525 6.949l4.525-4.525 4.525 4.525-4.525 4.525-4.525-4.525z"></path>
<path fill="#e49813" d="M2.424 25.051l4.525-4.525 4.525 4.525-4.525 4.525-4.525-4.525z"></path>
<path fill="#e49813" d="M2.424 6.949l4.525-4.525 4.525 4.525-4.525 4.525-4.525-4.525z"></path>
<path fill="#79baff" d="M16 11.475l4.525-4.525 4.525 4.525-4.525 4.525-4.525-4.525z"></path>
<path fill="#79baff" d="M6.949 20.525l4.525-4.525 4.525 4.525-4.525 4.525-4.525-4.525z"></path>
<path fill="#e76a58" d="M20.525 25.051l4.525 4.525c-2.457 2.457-6.415 2.499-8.923 0.125l-0.128-0.125 4.525-4.525zM29.576 16c2.457 2.457 2.499 6.415 0.125 8.923l-0.125 0.128-4.525-4.525 4.525-4.525zM11.475 25.051l4.525 4.525c-2.457 2.457-6.415 2.499-8.923 0.125l-0.128-0.125 4.525-4.525zM29.576 6.949c2.457 2.457 2.499 6.415 0.125 8.923l-0.125 0.128-4.525-4.525 4.525-4.525zM2.424 16l4.525 4.525-4.525 4.525c-2.499-2.499-2.499-6.552 0-9.051zM16 2.424c2.457-2.457 6.415-2.499 8.923-0.125l0.128 0.125-4.525 4.525-4.525-4.525zM6.949 2.424c2.457-2.457 6.415-2.499 8.923-0.125l0.128 0.125-4.525 4.525-4.525-4.525zM2.424 6.949l4.525 4.525-4.525 4.525c-2.457-2.457-2.499-6.415-0.125-8.923l0.125-0.128z"></path>
</svg>
